# xmcd
#
# Track frame offsets:
#	150
#	19113
#	43044
#	61890
#	82688
#	102886
#	136598
#	156125
#	178642
#	198739
#	216963
#	240011
#
# Disc length: 3534 seconds
# Revision: 0
# Processed by: cddbd v1.5.2PL0 Copyright (c) Steve Scherf et al.
# Submitted via: dBpowerAMP V12.0
#
DISCID=8f0dcc0c
DTITLE=Howard Glazer - Looking in the Mirror
DYEAR=2014
DGENRE=Blues
TTITLE0=Midnight Postman
TTITLE1=Broken Down Hotel Blues
TTITLE2=Take Me Baby
TTITLE3=All I Ever Wanted
TTITLE4=Walking in Detroit
TTITLE5=Eviction Blues
TTITLE6=Feeling So Bad
TTITLE7=Looking in the Mirror
TTITLE8=Wandering Trails
TTITLE9=Pushing the Limits
TTITLE10=Misunderstood the Devil
TTITLE11=Emergency
EXTD=
EXTT0=
EXTT1=
EXTT2=
EXTT3=
EXTT4=
EXTT5=
EXTT6=
EXTT7=
EXTT8=
EXTT9=
EXTT10=
EXTT11=
PLAYORDER=
